<svg width="24" height="24" viewBox="0 0 24 24" fill="none" xmlns="http://www.w3.org/2000/svg">
<path fill-rule="evenodd" clip-rule="evenodd" d="M18.4828 4.26019C18.83 3.91331 19.3926 3.91323 19.7397 4.26019C20.0867 4.60725 20.0866 5.16988 19.7397 5.51703L13.2563 11.9995L19.7397 18.4828C20.0867 18.83 20.0868 19.3926 19.7397 19.7397C19.3926 20.0868 18.83 20.0867 18.4828 19.7397L11.9995 13.2563L5.51703 19.7397C5.16988 20.0866 4.60725 20.0867 4.26019 19.7397C3.91323 19.3926 3.91331 18.83 4.26019 18.4828L10.7426 11.9995L4.26019 5.51703C3.91337 5.16987 3.91316 4.60722 4.26019 4.26019C4.60722 3.91316 5.16987 3.91337 5.51703 4.26019L11.9995 10.7426L18.4828 4.26019Z" fill="#222222"/>
</svg>
